<?xml version="1.0" standalone="no"?><!-- Generator: Gravit.io --><svg xmlns="http://www.w3.org/2000/svg" xmlns:xlink="http://www.w3.org/1999/xlink" style="isolation:isolate" viewBox="0 0 128 128" width="128" height="128"><defs><clipPath id="_clipPath_E5dM3mqalgCKL4WGR4hlMdzGIlUTgWDr"><rect width="128" height="128"/></clipPath></defs><g clip-path="url(#_clipPath_E5dM3mqalgCKL4WGR4hlMdzGIlUTgWDr)"><path d=" M 91.853 34.775 C 96.776 33.418 101.299 31.693 105.311 29.652 C 112.775 38.621 117.101 49.784 117.629 61.44 L 95.908 61.44 C 95.693 51.704 94.252 42.652 91.853 34.775 Z  M 61.44 117.491 L 61.44 94.789 C 55.233 94.918 49.051 95.606 42.967 96.842 C 47.419 108.17 54.034 116.009 61.44 117.491 Z  M 42.967 31.16 C 49.051 32.397 55.233 33.084 61.44 33.213 L 61.44 10.509 C 54.034 11.991 47.416 19.83 42.967 31.16 Z  M 41.262 91.968 C 47.619 90.604 54.446 89.825 61.44 89.669 L 61.44 66.56 L 37.243 66.56 C 37.473 75.776 38.915 84.452 41.262 91.968 Z  M 36.147 34.775 C 31.224 33.418 26.698 31.693 22.687 29.652 C 15.223 38.621 10.898 49.784 10.371 61.44 L 32.092 61.44 C 32.307 51.704 33.748 42.655 36.147 34.775 Z  M 48.179 12.623 C 39.938 15.177 32.431 19.677 26.294 25.741 C 29.996 27.476 33.845 28.878 37.796 29.929 C 40.499 22.807 44.04 16.891 48.179 12.623 Z  M 32.09 66.56 L 10.371 66.56 C 10.899 78.216 15.225 89.379 22.689 98.348 C 26.701 96.307 31.224 94.582 36.147 93.225 C 33.748 85.348 32.307 76.296 32.09 66.56 Z  M 26.296 102.262 C 32.433 108.325 39.939 112.823 48.179 115.377 C 44.04 111.109 40.499 105.193 37.798 98.074 C 33.847 99.124 29.998 100.526 26.296 102.262 L 26.296 102.262 Z  M 37.243 61.44 L 61.44 61.44 L 61.44 38.331 C 54.446 38.175 47.619 37.396 41.262 36.032 C 38.915 43.548 37.473 52.224 37.243 61.44 Z  M 79.821 115.377 C 88.062 112.823 95.569 108.323 101.706 102.259 C 98.004 100.524 94.155 99.122 90.204 98.071 C 87.501 105.193 83.96 111.109 79.821 115.377 Z  M 66.56 94.787 L 66.56 117.489 C 73.966 116.006 80.584 108.168 85.033 96.837 C 78.949 95.603 72.767 94.916 66.56 94.787 L 66.56 94.787 Z  M 91.853 93.225 C 96.776 94.582 101.302 96.307 105.313 98.348 C 112.777 89.379 117.102 78.216 117.629 66.56 L 95.908 66.56 C 95.693 76.296 94.252 85.345 91.853 93.225 Z  M 128 64 C 128 99.29 99.29 128 64 128 C 28.71 128 0 99.29 0 64 C 0 28.71 28.71 0 64 0 C 99.29 0 128 28.71 128 64 Z  M 122.88 64 C 122.88 31.532 96.466 5.12 64 5.12 C 31.534 5.12 5.12 31.532 5.12 64 C 5.12 96.468 31.534 122.88 64 122.88 C 96.466 122.88 122.88 96.468 122.88 64 Z  M 86.738 36.032 C 80.381 37.396 73.554 38.175 66.56 38.331 L 66.56 61.44 L 90.757 61.44 C 90.527 52.224 89.085 43.548 86.738 36.032 Z  M 66.56 10.509 L 66.56 33.211 C 72.767 33.082 78.949 32.394 85.033 31.158 C 80.581 19.83 73.966 11.991 66.56 10.509 Z  M 101.704 25.738 C 95.567 19.675 88.061 15.177 79.821 12.623 C 83.96 16.891 87.501 22.807 90.202 29.926 C 94.153 28.876 98.002 27.474 101.704 25.738 L 101.704 25.738 Z  M 90.757 66.56 L 66.56 66.56 L 66.56 89.669 C 73.554 89.825 80.381 90.604 86.738 91.968 C 89.085 84.452 90.527 75.776 90.757 66.56 Z " fill="rgb(106,173,255)"/></g></svg>