<?xml version="1.0" encoding="UTF-8" standalone="no"?><!-- Generator: Gravit.io --><svg xmlns="http://www.w3.org/2000/svg" xmlns:xlink="http://www.w3.org/1999/xlink" style="isolation:isolate" viewBox="0 0 256 256" width="256pt" height="256pt"><defs><clipPath id="_clipPath_6AC49JCQMy1T5GDc6UZ6h7g6cLAbADq9"><rect width="256" height="256"/></clipPath></defs><g clip-path="url(#_clipPath_6AC49JCQMy1T5GDc6UZ6h7g6cLAbADq9)"><circle vector-effect="non-scaling-stroke" cx="128" cy="128" r="128" fill="rgb(255,128,0)"/><path d=" M 120.25 75.375 L 120.25 75.375 L 120.25 75.375 Q 111.25 75.375 103.25 77.625 L 103.25 77.625 L 103.25 77.625 Q 95.25 79.875 85.5 84.875 L 85.5 84.875 L 75 56.625 L 75 56.625 Q 84.75 50.375 98 47 L 98 47 L 98 47 Q 111.25 43.625 124 43.625 L 124 43.625 L 124 43.625 Q 140 43.625 150.375 47.875 L 150.375 47.875 L 150.375 47.875 Q 160.75 52.125 166.75 58.625 L 166.75 58.625 L 166.75 58.625 Q 172.75 65.125 175.125 72.875 L 175.125 72.875 L 175.125 72.875 Q 177.5 80.625 177.5 87.625 L 177.5 87.625 L 177.5 87.625 Q 177.5 94.625 175.375 100.5 L 175.375 100.5 L 175.375 100.5 Q 173.25 106.375 170 111.375 L 170 111.375 L 170 111.375 Q 166.75 116.375 162.5 120.875 L 162.5 120.875 L 162.5 120.875 Q 158.25 125.375 154.25 129.375 L 154.25 129.375 L 154.25 129.375 Q 151.25 132.375 148 135.75 L 148 135.75 L 148 135.75 Q 144.75 139.125 142.125 142.875 L 142.125 142.875 L 142.125 142.875 Q 139.5 146.625 137.75 150.75 L 137.75 150.75 L 137.75 150.75 Q 136 154.875 136 159.125 L 136 159.125 L 136 159.125 Q 136 160.125 136 162.125 L 136 162.125 L 136 162.125 Q 136 164.125 136.25 165.625 L 136.25 165.625 L 103.25 165.625 L 103.25 165.625 Q 102.75 163.125 102.625 160 L 102.625 160 L 102.625 160 Q 102.5 156.875 102.5 154.625 L 102.5 154.625 L 102.5 154.625 Q 102.5 147.625 104.25 142 L 104.25 142 L 104.25 142 Q 106 136.375 108.875 131.5 L 108.875 131.5 L 108.875 131.5 Q 111.75 126.625 115.5 122.375 L 115.5 122.375 L 115.5 122.375 Q 119.25 118.125 123.25 114.125 L 123.25 114.125 L 123.25 114.125 Q 129 108.375 133.75 102.75 L 133.75 102.75 L 133.75 102.75 Q 138.5 97.125 138.5 89.875 L 138.5 89.875 L 138.5 89.875 Q 138.5 83.875 133.875 79.625 L 133.875 79.625 L 133.875 79.625 Q 129.25 75.375 120.25 75.375 Z  M 143.5 201.125 L 143.5 201.125 L 143.5 201.125 Q 143.5 212.125 136.375 218.125 L 136.375 218.125 L 136.375 218.125 Q 129.25 224.125 120.25 224.125 L 120.25 224.125 L 120.25 224.125 Q 111.25 224.125 104.125 218.125 L 104.125 218.125 L 104.125 218.125 Q 97 212.125 97 201.125 L 97 201.125 L 97 201.125 Q 97 190.125 104.125 184.125 L 104.125 184.125 L 104.125 184.125 Q 111.25 178.125 120.25 178.125 L 120.25 178.125 L 120.25 178.125 Q 129.25 178.125 136.375 184.125 L 136.375 184.125 L 136.375 184.125 Q 143.5 190.125 143.5 201.125 Z " fill="rgb(255,255,255)"/></g></svg>