<?xml version="1.0" encoding="UTF-8" standalone="no"?><!-- Generator: Gravit.io --><svg xmlns="http://www.w3.org/2000/svg" xmlns:xlink="http://www.w3.org/1999/xlink" style="isolation:isolate" viewBox="0 0 256 256" width="256pt" height="256pt"><defs><clipPath id="_clipPath_wkvpicUHkeL0NLl3LbtyEZGBbwxkWAGN"><rect width="256" height="256"/></clipPath></defs><g clip-path="url(#_clipPath_wkvpicUHkeL0NLl3LbtyEZGBbwxkWAGN)"><g><path d=" M 20 134.125 C 20 214.307 127.5 255.063 127.5 255.063 C 127.5 255.063 235 214.925 235 134.125 L 235 19.906 C 208.481 19.906 127.5 -0.25 127.5 -0.25 C 127.5 -0.25 46.485 19.906 20 19.906 L 20 134.125 Z " fill="rgb(0,160,0)"/><path d=" M 208.125 134.125 C 208.125 182.641 150.66 214.763 127.487 225.742 C 104.394 214.81 46.875 182.688 46.875 134.125 L 46.875 44.141 C 75.027 39.841 111.053 31.415 127.5 27.425 C 143.947 31.415 179.98 39.848 208.125 44.141 L 208.125 134.125 Z " fill="rgb(160,225,160)"/></g></g></svg>